Normalized EMG Linear Envelopes
nRows=214
nColumns=4

endheader
time	 med_gas_r	  soleus_r	 tib_ant_r	
2.69456	  0.010142	  0.021937	  0.048487	
2.72782	  0.010043	  0.021652	  0.048612	
2.76109	  0.009964	  0.021403	  0.048813	
2.79435	  0.009948	  0.021274	  0.049073	
2.82762	  0.009981	  0.021217	  0.049349	
2.86089	  0.010038	  0.021239	  0.049582	
2.89415	  0.010091	  0.021461	  0.049740	
2.92742	  0.010147	  0.021952	  0.049774	
2.96069	  0.010213	  0.022727	  0.049687	
2.99395	  0.010296	  0.023751	  0.049520	
3.02722	  0.010398	  0.024949	  0.049280	
3.06048	  0.010500	  0.026223	  0.048992	
3.09375	  0.010596	  0.027482	  0.048710	
3.12702	  0.010689	  0.028514	  0.048479	
3.16028	  0.010755	  0.028880	  0.048339	
3.19355	  0.010790	  0.028401	  0.048321	
3.22681	  0.010840	  0.027557	  0.048414	
3.26008	  0.010940	  0.026612	  0.048593	
3.29335	  0.011077	  0.025631	  0.048821	
3.32661	  0.011197	  0.024672	  0.049034	
3.35988	  0.011308	  0.023893	  0.049107	
3.39315	  0.011409	  0.023343	  0.048921	
3.42641	  0.011486	  0.022948	  0.048523	
3.45968	  0.011551	  0.022614	  0.048033	
3.49294	  0.011619	  0.022230	  0.047543	
3.52621	  0.011740	  0.021756	  0.047102	
3.55948	  0.011910	  0.021276	  0.046722	
3.59274	  0.012018	  0.020843	  0.046423	
3.62601	  0.011935	  0.020458	  0.046210	
3.65927	  0.011610	  0.020229	  0.046058	
3.69254	  0.011052	  0.020204	  0.045987	
3.72581	  0.010372	  0.020370	  0.046045	
3.75907	  0.009736	  0.020667	  0.046285	
3.79234	  0.009265	  0.020957	  0.046758	
3.8256	  0.009013	  0.021164	  0.047501	
3.85887	  0.009000	  0.021277	  0.048498	
3.89214	  0.009184	  0.021284	  0.049654	
3.9254	  0.009515	  0.021215	  0.050787	
3.95867	  0.009958	  0.021121	  0.051616	
3.99194	  0.010467	  0.020955	  0.051727	
4.0252	  0.010995	  0.020724	  0.050932	
4.05847	  0.011493	  0.020471	  0.049467	
4.09173	  0.011887	  0.020228	  0.047512	
4.125	  0.012094	  0.019949	  0.045162	
4.15827	  0.012117	  0.019594	  0.042467	
4.19153	  0.012016	  0.019218	  0.039509	
4.2248	  0.011841	  0.018960	  0.036500	
4.25806	  0.011639	  0.018899	  0.033804	
4.29133	  0.011458	  0.019212	  0.032069	
4.3246	  0.011345	  0.020227	  0.032299	
4.35786	  0.011410	  0.022337	  0.035897	
4.39113	  0.011802	  0.025978	  0.044619	
4.4244	  0.012642	  0.031490	  0.060272	
4.45766	  0.013963	  0.039167	  0.084615	
4.49093	  0.015803	  0.049363	  0.118980	
4.52419	  0.018254	  0.062452	  0.163558	
4.55746	  0.021325	  0.078217	  0.217226	
4.59073	  0.024840	  0.095620	  0.277694	
4.62399	  0.028487	  0.113079	  0.340782	
4.65726	  0.032105	  0.129427	  0.402361	
4.69052	  0.035710	  0.144770	  0.459387	
4.72379	  0.039261	  0.158583	  0.510846	
4.75706	  0.042570	  0.169643	  0.555006	
4.79032	  0.045424	  0.177261	  0.589533	
4.82359	  0.047897	  0.182199	  0.613447	
4.85685	  0.050250	  0.185573	  0.630030	
4.89012	  0.052720	  0.188566	  0.642323	
4.92339	  0.055398	  0.192645	  0.651603	
4.95665	  0.058288	  0.199156	  0.660028	
4.98992	  0.061395	  0.208028	  0.665771	
5.02319	  0.064632	  0.218739	  0.667872	
5.05645	  0.067584	  0.229380	  0.667258	
5.08972	  0.069779	  0.237518	  0.661729	
5.12298	  0.071178	  0.243341	  0.651056	
5.15625	  0.071910	  0.247147	  0.638016	
5.18952	  0.072352	  0.249432	  0.623067	
5.22278	  0.072668	  0.250824	  0.605874	
5.25605	  0.072772	  0.251417	  0.590258	
5.28931	  0.072617	  0.251563	  0.581515	
5.32258	  0.072299	  0.251855	  0.581261	
5.35585	  0.072045	  0.252584	  0.588507	
5.38911	  0.072204	  0.253812	  0.600619	
5.42238	  0.073266	  0.257347	  0.617509	
5.45565	  0.075869	  0.265507	  0.640289	
5.48891	  0.080064	  0.278848	  0.668730	
5.52218	  0.085267	  0.296084	  0.700972	
5.55544	  0.090724	  0.313832	  0.733909	
5.58871	  0.095186	  0.327827	  0.762205	
5.62198	  0.097817	  0.335711	  0.778877	
5.65524	  0.098425	  0.336361	  0.779610	
5.68851	  0.096910	  0.328675	  0.763849	
5.72177	  0.093597	  0.314213	  0.739775	
5.75504	  0.088864	  0.295256	  0.716066	
5.78831	  0.083447	  0.274765	  0.697617	
5.82157	  0.078267	  0.255990	  0.686230	
5.85484	  0.073843	  0.241266	  0.681514	
5.8881	  0.070306	  0.231418	  0.682654	
5.92137	  0.067849	  0.227216	  0.686863	
5.95464	  0.066623	  0.228718	  0.689343	
5.9879	  0.066873	  0.236500	  0.686726	
6.02117	  0.068782	  0.251061	  0.680622	
6.05444	  0.072296	  0.271047	  0.673945	
6.0877	  0.076900	  0.293942	  0.671171	
6.12097	  0.082124	  0.317339	  0.677604	
6.15423	  0.087616	  0.338545	  0.696262	
6.1875	  0.093095	  0.356230	  0.726761	
6.22077	  0.097867	  0.367909	  0.762129	
6.25403	  0.101455	  0.371611	  0.794669	
6.2873	  0.103707	  0.367183	  0.819403	
6.32056	  0.104331	  0.354605	  0.831957	
6.35383	  0.103478	  0.336587	  0.835552	
6.3871	  0.100942	  0.315894	  0.833437	
6.42036	  0.096463	  0.293661	  0.822183	
6.45363	  0.090101	  0.270637	  0.800765	
6.4869	  0.082516	  0.248351	  0.776076	
6.52016	  0.075075	  0.229526	  0.753505	
6.55343	  0.068662	  0.214640	  0.731495	
6.58669	  0.063672	  0.203258	  0.705763	
6.61996	  0.060353	  0.195519	  0.676205	
6.65323	  0.058703	  0.191847	  0.646356	
6.68649	  0.058685	  0.193962	  0.618159	
6.71976	  0.060076	  0.202036	  0.594547	
6.75302	  0.062537	  0.214869	  0.578435	
6.78629	  0.065562	  0.229461	  0.571906	
6.81956	  0.068553	  0.242585	  0.576372	
6.85282	  0.071233	  0.253138	  0.592317	
6.88609	  0.073589	  0.262474	  0.618139	
6.91935	  0.075542	  0.271873	  0.648803	
6.95262	  0.077084	  0.280786	  0.678853	
6.98589	  0.078511	  0.289720	  0.701713	
7.01915	  0.080185	  0.299902	  0.714942	
7.05242	  0.082335	  0.312868	  0.721402	
7.08569	  0.085079	  0.330049	  0.725539	
7.11895	  0.088422	  0.350150	  0.730970	
7.15222	  0.092218	  0.370058	  0.739900	
7.18548	  0.095586	  0.384999	  0.749927	
7.21875	  0.097415	  0.390315	  0.754962	
7.25202	  0.097287	  0.384077	  0.752801	
7.28528	  0.095448	  0.368439	  0.746083	
7.31855	  0.092171	  0.345645	  0.738121	
7.35181	  0.088349	  0.320908	  0.730133	
7.38508	  0.084919	  0.299505	  0.721613	
7.41835	  0.082469	  0.283991	  0.711706	
7.45161	  0.081251	  0.275092	  0.697029	
7.48488	  0.081345	  0.273380	  0.675911	
7.51815	  0.082632	  0.278706	  0.649857	
7.55141	  0.084540	  0.287783	  0.622987	
7.58468	  0.086138	  0.296171	  0.598487	
7.61794	  0.086638	  0.300893	  0.578358	
7.65121	  0.085532	  0.300836	  0.566487	
7.68448	  0.082856	  0.297372	  0.566801	
7.71774	  0.079054	  0.292073	  0.579043	
7.75101	  0.075186	  0.286311	  0.598664	
7.78427	  0.072412	  0.282242	  0.619307	
7.81754	  0.070924	  0.279358	  0.641245	
7.85081	  0.070490	  0.276087	  0.664623	
7.88407	  0.070825	  0.271713	  0.688365	
7.91734	  0.071176	  0.264497	  0.712021	
7.9506	  0.071378	  0.256146	  0.733752	
7.98387	  0.072006	  0.249786	  0.744843	
8.01714	  0.073315	  0.246790	  0.734296	
8.0504	  0.075366	  0.248173	  0.704658	
8.08367	  0.077990	  0.253654	  0.666912	
8.11694	  0.081143	  0.261710	  0.630506	
8.1502	  0.084752	  0.272121	  0.599967	
8.18347	  0.088407	  0.283855	  0.576246	
8.21673	  0.091677	  0.295205	  0.558936	
8.25	  0.094065	  0.304037	  0.544733	
8.28327	  0.095376	  0.308522	  0.532005	
8.31653	  0.095387	  0.306871	  0.519527	
8.3498	  0.094472	  0.300161	  0.507228	
8.38306	  0.092922	  0.290479	  0.499464	
8.41633	  0.090891	  0.280119	  0.499735	
8.4496	  0.088550	  0.271128	  0.509728	
8.48286	  0.086359	  0.265304	  0.529608	
8.51613	  0.084726	  0.263997	  0.557055	
8.5494	  0.083442	  0.266085	  0.587091	
8.58266	  0.082432	  0.269880	  0.617148	
8.61593	  0.082183	  0.277009	  0.645429	
8.64919	  0.082971	  0.288900	  0.673277	
8.68246	  0.084278	  0.302681	  0.701993	
8.71573	  0.085584	  0.314465	  0.726297	
8.74899	  0.086848	  0.323096	  0.738194	
8.78226	  0.088409	  0.330242	  0.734665	
8.81552	  0.090253	  0.336191	  0.717391	
8.84879	  0.091768	  0.339304	  0.691270	
8.88206	  0.092556	  0.338405	  0.663693	
8.91532	  0.092762	  0.334531	  0.639510	
8.94859	  0.092744	  0.329412	  0.620619	
8.98185	  0.092188	  0.322691	  0.604799	
9.01512	  0.091048	  0.315389	  0.589265	
9.04839	  0.089897	  0.311518	  0.573618	
9.08165	  0.089892	  0.316404	  0.559173	
9.11492	  0.091671	  0.331382	  0.548597	
9.14819	  0.095138	  0.354346	  0.544466	
9.18145	  0.099710	  0.382522	  0.546531	
9.21472	  0.104593	  0.411724	  0.554606	
9.24798	  0.108449	  0.435681	  0.565465	
9.28125	  0.109456	  0.446299	  0.573643	
9.31452	  0.106530	  0.438711	  0.573773	
9.34778	  0.099620	  0.413246	  0.562997	
9.38105	  0.089528	  0.373670	  0.542433	
9.41431	  0.077998	  0.327362	  0.515376	
9.44758	  0.066256	  0.279073	  0.482796	
9.48085	  0.055006	  0.231817	  0.446545	
9.51411	  0.044687	  0.187736	  0.405823	
9.54738	  0.035649	  0.148748	  0.357511	
9.58065	  0.028105	  0.115885	  0.301485	
9.61391	  0.022096	  0.089126	  0.242060	
9.64718	  0.017542	  0.068191	  0.185291	
9.68044	  0.014330	  0.053067	  0.136316	
9.71371	  0.012338	  0.043493	  0.097889	
9.74698	  0.011341	  0.038463	  0.070317	
9.78024	  0.011071	  0.036486	  0.052336	
